<svg id="Layer_1" data-name="Layer 1" xmlns="http://www.w3.org/2000/svg" xmlns:xlink="http://www.w3.org/1999/xlink" viewBox="0 0 60 60"><defs><clipPath id="clip-path"><path d="M7.29,1.5H21a5.81,5.81,0,0,1,5.79,5.79V21A5.8,5.8,0,0,1,21,26.81H7.29A5.81,5.81,0,0,1,1.5,21V7.29A5.81,5.81,0,0,1,7.29,1.5Z" fill="none" clip-rule="evenodd"/></clipPath><clipPath id="clip-path-2"><path d="M39,1.5H52.71A5.81,5.81,0,0,1,58.5,7.29V21a5.81,5.81,0,0,1-5.79,5.79H39A5.8,5.8,0,0,1,33.16,21V7.29A5.81,5.81,0,0,1,39,1.5Z" fill="none" clip-rule="evenodd"/></clipPath><clipPath id="clip-path-3"><path d="M7.29,33.16H21A5.8,5.8,0,0,1,26.81,39V52.71A5.81,5.81,0,0,1,21,58.5H7.29A5.81,5.81,0,0,1,1.5,52.71V39a5.81,5.81,0,0,1,5.79-5.79Z" fill="none" clip-rule="evenodd"/></clipPath></defs><title>4</title><path d="M7.29,1.5H21a5.81,5.81,0,0,1,5.79,5.79V21A5.8,5.8,0,0,1,21,26.81H7.29A5.81,5.81,0,0,1,1.5,21V7.29A5.81,5.81,0,0,1,7.29,1.5Z" fill="#fff" fill-rule="evenodd"/><g clip-path="url(#clip-path)"><path d="M17.34,20.5H5.84a4.21,4.21,0,0,1-1.18-.17,4.38,4.38,0,0,1-3-3,4.21,4.21,0,0,1-.17-1.18V21a5.69,5.69,0,0,0,.64,2.64,6,6,0,0,0,2.52,2.55,5.84,5.84,0,0,0,2.63.6H21a5.76,5.76,0,0,0,2.64-.6,6,6,0,0,0,2.55-2.55,5.79,5.79,0,0,0,.6-2.64V16.16a5.08,5.08,0,0,1-.14,1.18,4.41,4.41,0,0,1-3,3,4.17,4.17,0,0,1-1.19.17Z" fill="#cef" fill-rule="evenodd"/></g><path d="M7.29,1.5H21a5.81,5.81,0,0,1,5.79,5.79V21A5.8,5.8,0,0,1,21,26.81H7.29A5.81,5.81,0,0,1,1.5,21V7.29A5.81,5.81,0,0,1,7.29,1.5Z" fill="none" stroke="#00a8ff" stroke-miterlimit="10" stroke-width="3"/><path d="M39,33.16H52.71A5.81,5.81,0,0,1,58.5,39V52.71a5.81,5.81,0,0,1-5.79,5.79H39a5.81,5.81,0,0,1-5.79-5.79V39A5.8,5.8,0,0,1,39,33.16Z" fill="#fff" stroke="#00a8ff" stroke-miterlimit="10" stroke-width="3" fill-rule="evenodd"/><polyline points="40.22 44.71 44.71 49.17 51.43 42.45" fill="none" stroke="#00a8ff" stroke-linecap="round" stroke-linejoin="round" stroke-width="3"/><path d="M39,1.5H52.71A5.81,5.81,0,0,1,58.5,7.29V21a5.81,5.81,0,0,1-5.79,5.79H39A5.8,5.8,0,0,1,33.16,21V7.29A5.81,5.81,0,0,1,39,1.5Z" fill="#fff" fill-rule="evenodd"/><g clip-path="url(#clip-path-2)"><path d="M49,20.5H37.5a4.33,4.33,0,0,1-1.19-.17,4.39,4.39,0,0,1-3-3,3.87,3.87,0,0,1-.17-1.18V21a5.81,5.81,0,0,0,.63,2.64,6,6,0,0,0,2.52,2.55,5.88,5.88,0,0,0,2.64.6H52.71a5.71,5.71,0,0,0,2.6-.6,6,6,0,0,0,2.55-2.55A5.69,5.69,0,0,0,58.5,21V16.16a4.21,4.21,0,0,1-.17,1.18,4.43,4.43,0,0,1-3,3,4,4,0,0,1-1.15.17Z" fill="#cef" fill-rule="evenodd"/></g><path d="M39,1.5H52.71A5.81,5.81,0,0,1,58.5,7.29V21a5.81,5.81,0,0,1-5.79,5.79H39A5.8,5.8,0,0,1,33.16,21V7.29A5.81,5.81,0,0,1,39,1.5Z" fill="none" stroke="#00a8ff" stroke-miterlimit="10" stroke-width="3"/><path d="M7.29,33.16H21A5.8,5.8,0,0,1,26.81,39V52.71A5.81,5.81,0,0,1,21,58.5H7.29A5.81,5.81,0,0,1,1.5,52.71V39a5.81,5.81,0,0,1,5.79-5.79Z" fill="#fff" fill-rule="evenodd"/><g clip-path="url(#clip-path-3)"><path d="M17.34,52.16H5.84A3.88,3.88,0,0,1,4.66,52,4.35,4.35,0,0,1,1.5,47.81v4.9a5.62,5.62,0,0,0,.64,2.6,6,6,0,0,0,2.52,2.55,5.74,5.74,0,0,0,2.63.64H21a5.66,5.66,0,0,0,2.64-.64,6,6,0,0,0,2.55-2.55,5.71,5.71,0,0,0,.6-2.6v-4.9A5.17,5.17,0,0,1,26.67,49a4.32,4.32,0,0,1-3,3,3.85,3.85,0,0,1-1.19.18Z" fill="#cef" fill-rule="evenodd"/></g><path d="M7.29,33.16H21A5.8,5.8,0,0,1,26.81,39V52.71A5.81,5.81,0,0,1,21,58.5H7.29A5.81,5.81,0,0,1,1.5,52.71V39a5.81,5.81,0,0,1,5.79-5.79Z" fill="none" stroke="#00a8ff" stroke-miterlimit="10" stroke-width="3"/></svg>