<svg id="Layer_1" data-name="Layer 1" xmlns="http://www.w3.org/2000/svg" viewBox="0 0 480.2 480.2"><title>Artboard 1</title><path d="M335.12,94.23c4.31,1.19,15.17-.56,26.79.63-2.84,13.91.17,28.65,3.51,43-1.3,1,.85.51-2.69,2,3.8.48,2.52-.48,3.54,4.37l3.38,19.5c3.14,17.49,8.7,71.46-12,73.84-1.67-3.6-7.62-42-9.15-49.58s-11.48-44.08-11.11-46.85c-1.34-1.51-1.93-1.62-2.78-6.61-6.55-38.1-8.42-24-13.35-40.76-5.1-3.18-6.12-7.17-12.33-9.16-8.71-2.75-27.75-2.46-37.56.94-19,6.55-.82,8.45-24.52,8.3,1.84.94,21.8,2.16,25.6,2.24.39,10.46,3.88,14.91,6.29,23.62,1.84,6.71,5.38,17.37,6.69,23.47,7.17,25.54,3.65,39.85-7.29,61.23-8.56,16.75-21.94,32.37-33.45,42.91-.34,3.52.94.91-3.11,3.35a26.26,26.26,0,0,0-4.77,3.43c-2.49,2.12-5.81,4.48-8.78,7.11-8.85,7.77-10.41,14-14.46,16.53.37-23.93,3.49-50-9.3-70.7-2-3.29-2.89-6.83-5.75-10.12-2.21-2.52-1.42-.88-3.69-4.34-5.41-8.19-7.31-5-11.11-12.1-7.6-3.12-15.79-14.51-47-21.8-51.93-12.13-116.64,14.63-127.19,75,1.25,1.81,7.8,47.9,20,64.14l12.11,18.91c1.92,2.78,3.31,3.26,5.41,5.64s1.67,3.06,4.11,5.76c2.75,3.09,3.66,2.86,6,5.1,1.87,1.76,2.75,3.6,5.24,5.67,11.94,10,25.06,22.65,37.9,30.19,3.15,1.84.46.28,3.32,2.72,3.57,3.09,6.58,3.51,11.93,6.94l23.45,10.49c6,1.9,1,1.84,15.39,5.67,2.95.79,4.56,2.21,8,3.2,3.12.91,5.56.85,8.87,1.79,2.1.62,5.62,2.32,8.65,2.89,3.66.71,5,0,8.76,1,3,.85,5.5,1.84,8.93,2.21,7.82.85,31.55,4.82,37.64,3.43l16.84-5.1c17.66-5.67,39.83-20.07,52.72-32.26s27.53-33.19,34.73-50.29l10.71-31.35,5.13-26.84c.43-4.17-.51-7.6,1.53-10.26-.85,9.13,0,37.39-1.36,44.25-5.38,27.66-3.11,33.47-16,60.37-11.19,23.45-31.06,40.17-56,50a39.84,39.84,0,0,1-6.09,1.7L271,412.08c28.83-1,69.48-5,95.56-17.32l18.54-9.61c3.09-1.64,6-3.06,9.07-4.76a42.76,42.76,0,0,0,4.39-2.58c2.55-1.87,1.9-1.84,4.45-3.6,20-13.95,45.21-38.64,52.21-62.79,5.42-18.71-3.23-42.66-12.5-55.61l-12.38-15.56c-6.15-10.69-10.69-32.43-13-45.08-.14-.76-.29-1.89-.4-2.49-.74-3.88-1.73-4.73-.71-8.84-.37,3.34-.59,2.86,3.57,4.7-2.92-18.45-2.69-37.08-5.07-55.16-1.64-8-1.42-15.45-1.76-23.56-.45-9.72-1-13.69-5.41-19.36l2.27-1.64c-8.51.11-2.36-4.34-16.7-6.35-13-1.84-27.44.79-37.84,7.91-7.49,5.16-16.19,1.16-20.13,3.85Z" fill="#da7b67" fill-rule="evenodd"/><path d="M419.76,188.54c-4.16-1.84-3.94-1.36-3.57-4.7-1,4.11,0,5,.71,8.84.11.6.26,1.73.4,2.49,2.35,12.65,6.89,34.39,13,45.08l12.38,15.56c9.27,12.95,17.92,36.9,12.5,55.61-7,24.15-32.22,48.84-52.21,62.79-2.55,1.76-1.9,1.73-4.45,3.6a42.76,42.76,0,0,1-4.39,2.58c-3.09,1.7-6,3.12-9.07,4.76l-18.54,9.61c-26.08,12.3-66.73,16.33-95.56,17.32l6.55-2.41a39.84,39.84,0,0,0,6.09-1.7c25-9.78,44.85-26.5,56-50,12.85-26.9,10.58-32.71,16-60.37,1.34-6.86.51-35.12,1.36-44.25-2,2.66-1.1,6.09-1.53,10.26l-5.13,26.84-10.71,31.35c-7.2,17.1-21.72,38-34.73,50.29s-35.06,26.59-52.72,32.26l-16.84,5.1c-6.09,1.39-29.82-2.58-37.64-3.43-3.43-.37-5.9-1.36-8.93-2.21-3.72-1.05-5.1-.31-8.76-1-3-.57-6.55-2.27-8.65-2.89-3.31-.94-5.75-.88-8.87-1.79-3.46-1-5.07-2.41-8-3.2-14.34-3.83-9.41-3.77-15.39-5.67L115.63,378.8c-5.35-3.43-8.36-3.85-11.93-6.94-2.86-2.44-.17-.88-3.32-2.72-12.84-7.54-26-20.21-37.9-30.19-2.49-2.07-3.37-3.91-5.24-5.67-2.35-2.24-3.26-2-6-5.1-2.44-2.7-2-3.38-4.11-5.76s-3.49-2.86-5.41-5.64L29.6,297.87c-12.21-16.24-18.76-62.33-20-64.14-5.07,60.12,21.32,113,65.14,147,35.26,27.41,51.48,37.76,101.54,51.56,61.91,17.07,148.87,15.68,207-15.87C440.74,385.21,472,334,477.48,266.58c1.73-21.26-.31-35.89-7.32-53.24-4.28-10.57-15.16-37-27-33.1-6.46,4.93-6,18.17-5.95,27.32-8.39.4-16.44-17.74-17.41-19Z" fill="#c66e5d" fill-rule="evenodd"/><path d="M56.05,186.73c-30,6.91-26.7,29-26.42,51.13.88,74.27,95.59,88.84,139.32,52.33,19.79-16.5,22.2-30.3,22.37-54.34.08-12.56,1.62-24.21-3.83-33.87-4-7.2-13.24-13.78-23.27-15.62-31.27-5.7-45.41,20.63-54.68,21-9,.37-20.89-28.23-53.49-20.66Z" fill="#f6e6cd" fill-rule="evenodd"/><path d="M187,139.36c4.26-1,33.57,1.47,41.67,1.47l11.09.51c.42.09.59.15,1,.26l2.92,1.16,41.81.43c-1.31-6.1-4.85-16.76-6.69-23.47-2.41-8.71-5.9-13.16-6.29-23.62-3.8-.08-23.76-1.3-25.6-2.24l-9.24-1-4.14-1.48c-.09,6.18-.09,12.28-.06,18.48,0,6.47,1.65,14.09-4.76,14.18s-6-6-7.23-12c-.79-4.06-3.09-11.82-3.29-14.94-.22,8.47,1.45,21-2.58,26.59-9.12,1.22-8.39-6-9.78-13-.87-4.4-3.65-14.94-3.57-18.31-1.22,7.34-.48,15.16-.51,22.59,0,10.12-7.14,12-10,5.86-2.4-5.1-7.08-31-5.89-35.74l-2.13.79c-4.22,2.16-4.62,1.53-13.66-.42-13.95-3-26.56-6.27-39.57-11.48C89.78,57.67,87.8,41.82,81.28,38.13c-6.18-3.51-27.16.35-6.18,23.22C81.85,68.72,92.82,80.82,100.44,87c3.37,2.7,7.17,5,10.06,7.57-27.21,1.62-59.21,1.25-84.58-5.1-16.16-4-23.7-8.82-25.71,12-1.7,17.44,7,15.51,25.23,18.82,39.65,7.18,79,12.28,119.16,15.94,10.75,1,32.32,4.33,42.35,3.17Z" fill="#b16f4d" fill-rule="evenodd"/><path d="M183.75,180.49c3.8,7.06,5.7,3.91,11.11,12.1,2.27,3.46,1.48,1.82,3.69,4.34,2.86,3.29,3.71,6.83,5.75,10.12,12.79,20.72,9.67,46.77,9.3,70.7,4.05-2.53,5.61-8.76,14.46-16.53,3-2.63,6.29-5,8.78-7.11a26.26,26.26,0,0,1,4.77-3.43c4-2.44,2.77.17,3.11-3.35.49-15.59-1.33-37.36-2.29-53.52-1-16.95-2.81-34.49-5.1-51.19l6.32.14-2.92-1.16c-.43-.11-.6-.17-1-.26l-11.09-.51c-8.1,0-37.41-2.46-41.67-1.47-.56,1.93-3.43,37.67-3.2,41.13Z" fill="#c66e5d" fill-rule="evenodd"/><path d="M409.79,88.82l-2.27,1.64c4.45,5.67,5,9.64,5.41,19.36.34,8.11.12,15.59,1.76,23.56,12.16-.91,30.87-5.3,42.35-8.08,22.68-5.53,23-1.79,23.16-26.48.22-35.37-9.64-13.69-70.41-10Z" fill="#b16f4d" fill-rule="evenodd"/><path d="M185.85,85c-1.19,4.73,3.49,30.64,5.89,35.74,2.84,6.1,9.95,4.26,10-5.86,0-7.43-.71-15.25.51-22.59-.08,3.37,2.7,13.91,3.57,18.31,1.39,7,.66,14.23,9.78,13,4-5.56,2.36-18.12,2.58-26.59.2,3.12,2.5,10.88,3.29,14.94,1.19,6.06.77,12.1,7.23,12s4.76-7.71,4.76-14.18c0-6.2,0-12.3.06-18.48-.31-13.12-10.94-11.73-15.85-6.49a6.48,6.48,0,0,1-.62-.43l-1.84-1.24c-2.1-1.33-3.6-2.16-6.27-1.9-3.71.37-5.13,2.69-7.28,4.53-6.92-6.09-9.16-6.52-15.79-.79Z" fill="#f6e6cd" fill-rule="evenodd"/><path d="M337.42,141.15l25.31-1.28c3.54-1.53,1.39-1.05,2.69-2-3.34-14.32-6.35-29.06-3.51-43-11.62-1.19-22.48.56-26.79-.63l-13.83-.45c4.93,16.75,6.8,2.66,13.35,40.76.85,5,1.44,5.1,2.78,6.61Z" fill="#b16f4d" fill-rule="evenodd"/><path d="M105,228.68c-26.95,7.65-10.12,36.2,14,28.54,25.17-8,9.84-35.29-14-28.54Z" fill="#525252" fill-rule="evenodd"/><path d="M76.77,261.08c-9.3,8.36,17.35,21,28.15,22.51,27.41,3.68,48.33-17.38,39-23.19-4.77-2.92-7.35,1.45-9.19,3.54-9.44,10.72-28.46,12.42-40.93,5.79-11.34-6-10.83-14.23-17-8.65Z" fill="#525252" fill-rule="evenodd"/><path d="M157.3,216.35c-10.8,3-22.93,17.32-15.22,21.23,9.41,4.79,10.8-17.26,28.35-9.52,7.94,3.48,5.81,8.59,9.83,10.29,5.59,2.35,9.61-4.43,5.36-10.46-4.76-6.75-14.91-15.23-28.32-11.54Z" fill="#525252" fill-rule="evenodd"/><path d="M38.25,237.44c12.44,3.37,8.33-10.21,22.36-10.74a14.79,14.79,0,0,1,12.14,5c4.16,4.85,1.33,8,9.49,6.75,4-6.46,0-10.09-4.08-14.17-17.83-18-43.74-2-39.91,13.15Z" fill="#525252" fill-rule="evenodd"/><path d="M183.72,85.81l2.13-.79c6.63-5.73,8.87-5.3,15.79.79,2.15-1.84,3.57-4.16,7.28-4.53,2.67-.26,4.17.57,6.27,1.9L217,84.42a6.48,6.48,0,0,0,.62.43c4.91-5.24,15.54-6.63,15.85,6.49l4.14,1.48c-7.46-24.24-42.86-28.52-53.92-7Z" fill="#c66e5d" fill-rule="evenodd"/></svg>