<svg xmlns="http://www.w3.org/2000/svg" xmlns:xlink="http://www.w3.org/1999/xlink" width="20" height="20" viewBox="0 0 20 20"><defs><style>.a,.c{fill:#FF0080;}.b{clip-path:url(#a);}.c{fill-rule:evenodd;}</style><clipPath id="a"><rect class="a" width="20" height="20"/></clipPath></defs><g class="b"><path class="c" d="M4.95,14.167l5.3,5.175a.834.834,0,0,0,1.421-.584V1.242a.834.834,0,0,0-1.43-.575L4.954,5.833H1.667A1.667,1.667,0,0,0,0,7.5v5a1.667,1.667,0,0,0,1.667,1.667Zm11.4-9.284a1.016,1.016,0,0,0,0,1.442,5.489,5.489,0,0,1,0,7.767,1.02,1.02,0,1,0,1.442,1.442A7.53,7.53,0,0,0,17.8,4.892L17.8,4.883A1.016,1.016,0,0,0,16.354,4.883Zm-.862,8.346a4.288,4.288,0,0,0,0-6.042A1.02,1.02,0,0,0,14.05,8.629a2.244,2.244,0,0,1,0,3.159,1.019,1.019,0,0,0,1.442,1.441Z"/></g></svg>