<svg xmlns="http://www.w3.org/2000/svg" xmlns:xlink="http://www.w3.org/1999/xlink" width="1600" height="900" viewBox="0 0 1600 900"><defs><style>.a{stroke:#707070;}.b,.g{fill:#fff;}.c{fill:#d9e8ff;}.d{clip-path:url(#a);}.e{opacity:0.2;}.f{clip-path:url(#b);}.g{fill-rule:evenodd;}.h{opacity:0.3;}.i{clip-path:url(#c);}</style><clipPath id="a"><rect class="a" width="1600" height="900"/></clipPath><clipPath id="b"><rect class="b" width="336" height="336"/></clipPath><clipPath id="c"><rect class="b" width="516" height="516"/></clipPath></defs><g transform="translate(-169 -482)"><rect class="c" width="1600" height="900" transform="translate(169 482)"/><g class="d" transform="translate(169 482)"><g class="e" transform="translate(-81 664)"><g class="f"><path class="g" d="M83.089,231.22l88.9,86.866a14.007,14.007,0,0,0,23.852-9.8V14.265a14.007,14.007,0,0,0-24-9.652L83.156,91.328H27.982A27.974,27.974,0,0,0,0,119.31v83.928A27.974,27.974,0,0,0,27.982,231.22ZM274.513,75.382a17.061,17.061,0,0,0,0,24.2,92.132,92.132,0,0,1-.067,130.374,17.115,17.115,0,0,0,24.2,24.2,126.4,126.4,0,0,0,.2-178.633l-.134-.151A17.061,17.061,0,0,0,274.513,75.382ZM260.044,215.475a71.973,71.973,0,0,0,0-101.419,17.115,17.115,0,0,0-24.2,24.2,37.669,37.669,0,0,1,0,53.026,17.11,17.11,0,0,0,24.2,24.188Z" transform="translate(0 6.583)"/></g></g><g class="h" transform="translate(1084 16)"><g class="i"><path class="g" d="M127.6,354.864l136.52,133.4a21.51,21.51,0,0,0,36.631-15.054V21.684A21.511,21.511,0,0,0,263.889,6.861L127.7,140.031H42.972A42.961,42.961,0,0,0,0,183v128.89a42.961,42.961,0,0,0,42.972,42.972ZM421.573,115.542a26.2,26.2,0,0,0,0,37.172,141.488,141.488,0,0,1-.1,200.218A26.284,26.284,0,1,0,458.642,390.1a194.107,194.107,0,0,0,.309-274.329l-.206-.232A26.2,26.2,0,0,0,421.573,115.542ZM399.353,330.685a110.529,110.529,0,0,0,0-155.751,26.284,26.284,0,1,0-37.172,37.172,57.848,57.848,0,0,1,0,81.433,26.275,26.275,0,0,0,37.172,37.146Z" transform="translate(0 10.332)"/></g></g></g></g></svg>