<svg xmlns="http://www.w3.org/2000/svg" xmlns:xlink="http://www.w3.org/1999/xlink" width="40" height="40" viewBox="0 0 40 40"><defs><style>.a{fill:#b200ff;}.b{clip-path:url(#a);}</style><clipPath id="a"><rect class="a" width="40" height="40"/></clipPath></defs><g class="b"><path class="a" d="M28,0H8A6.018,6.018,0,0,0,2,6V34a6.018,6.018,0,0,0,6,6H28a6.018,6.018,0,0,0,6-6V6A6.018,6.018,0,0,0,28,0ZM20,28H8a2,2,0,0,1,0-4H20a2,2,0,0,1,0,4Zm8-8H8a2,2,0,0,1,0-4H28a2,2,0,0,1,0,4Zm0-8H8A2,2,0,0,1,8,8H28a2,2,0,0,1,0,4Z" transform="translate(2)"/></g></svg>