<svg xmlns="http://www.w3.org/2000/svg" xmlns:xlink="http://www.w3.org/1999/xlink" width="40" height="40" viewBox="0 0 40 40"><defs><style>.a{fill:#00ff8a;}.b{clip-path:url(#a);}</style><clipPath id="a"><rect class="a" width="40" height="40"/></clipPath></defs><g class="b" transform="translate(0 0)"><g transform="translate(0 4)"><path class="a" d="M32,2H8a8,8,0,0,0-8,8V30a4,4,0,0,0,4,4h.612a4,4,0,0,0,3.946-3.342l.884-5.316A4,4,0,0,1,13.388,22H26.612a4,4,0,0,1,3.946,3.342l.884,5.316A4,4,0,0,0,35.388,34H36a4,4,0,0,0,4-4V10A8,8,0,0,0,32,2ZM14,14H12v2a2,2,0,0,1-4,0V14H6a2,2,0,0,1,0-4H8V8a2,2,0,0,1,4,0v2h2a2,2,0,0,1,0,4Zm16,4a6,6,0,1,1,6-6A6,6,0,0,1,30,18Z" transform="translate(0 -2)"/><circle class="a" cx="2" cy="2" r="2" transform="translate(28 8)"/></g></g></svg>