<svg xmlns="http://www.w3.org/2000/svg" width="312.631" height="251.815" viewBox="0 0 312.631 251.815"><defs><style>.a{fill:#7f3838;}.b{fill:#cc635e;}.c{fill:#ccada1;}.d,.h,.i{fill:none;stroke-linecap:round;}.d,.i{stroke:#393c54;stroke-linejoin:round;}.d{stroke-width:3px;}.e{fill:#3d4b66;}.f{fill:#393c54;}.g{fill:#515570;}.h{stroke:#fff;stroke-miterlimit:10;stroke-width:2px;opacity:0.1;}.i{stroke-width:6px;}</style></defs><g transform="translate(14.87 -21.919)"><path class="a" d="M54.194,22A24.194,24.194,0,0,0,30,46.194L28.831,258.221c14.66,10.111,32.235,2.4,49.556,6.537V46.194A24.194,24.194,0,0,0,54.194,22Z" transform="translate(32.517 0)"/><path class="b" d="M212.967,139.139c0-35.056-22.016-60.484-52.984-70.016l4.839-8.008a1.427,1.427,0,0,0-1.4-2.177L148.9,60.921A1.427,1.427,0,0,1,147.6,58.5l6.435-7.742a1.427,1.427,0,0,0-1.306-2.419A241.934,241.934,0,0,0,101.75,61.405a84.677,84.677,0,0,0-52.572,77.734v7.79c0,37.452-3.992,51.242-15.387,64.742,0,0-26.756,13.545-28.543,19.726,7.735,4.549,21.4,5,21.4,5s195.018-.306,233.039-.306c3.567-16.735-46.461-79.843-46.716-96.952Z" transform="translate(37.897 37.337)"/><path class="c" d="M143.87,129.086a15.266,15.266,0,0,1-12.1-18.46,15.847,15.847,0,0,1,18.339-11.419l14.3,2.419a1.935,1.935,0,0,0,1.863-2.685c-9.411-16.935-33.29-30.581-58.064-30.581S59.532,82.005,50.145,98.941a1.935,1.935,0,0,0,2.008,2.855l14.3-2.419A15.847,15.847,0,0,1,84.79,110.8a15.266,15.266,0,0,1-12.218,18.46l-19.79,3.315a1.935,1.935,0,0,0-1.282,2.976c7.814,12.1,24.677,20.371,56.71,20.371s48.9-8.177,56.71-20.371a1.935,1.935,0,0,0-1.282-2.976Z" transform="translate(60.759 65.801)"/><path class="d" d="M100.356,92.19a21.774,21.774,0,0,1-6.7,5.347,28.089,28.089,0,0,1-24.774,0" transform="translate(87.702 99.624)"/><path class="e" d="M93.654,88.48c0,6.847-5.54,10.282-12.387,10.282S68.88,95.327,68.88,88.48C68.88,84.561,93.654,83.956,93.654,88.48Z" transform="translate(87.702 89.858)"/><path class="e" d="M62.93,93.055l7.379-1.766a1.718,1.718,0,0,1,2.153,1.645,9.677,9.677,0,0,1-10.355,9.677,9.435,9.435,0,0,1-7.258-4.452A9.532,9.532,0,0,1,68.228,85.168a1.766,1.766,0,0,1,.194,2.685Z" transform="translate(65.709 87.364)"/><path class="e" d="M96.075,93.039l7.258-1.766a1.742,1.742,0,0,1,2.153,1.645A9.677,9.677,0,0,1,95.107,102.6a9.387,9.387,0,0,1-7.258-4.452A9.532,9.532,0,0,1,101.2,85.152a1.742,1.742,0,0,1,.218,2.686Z" transform="translate(112.571 87.38)"/><path class="f" d="M212.517,29H7.09V67.71H212.517a19.355,19.355,0,1,0,0-38.71Z" transform="translate(0 9.935)"/><circle class="g" cx="19.355" cy="19.355" r="19.355" transform="translate(193.162 38.935)"/><circle class="h" cx="10.427" cy="10.427" r="10.427" transform="translate(202.09 47.863)"/><line class="i" x2="18.145" y2="18.145" transform="translate(21.388 70.387)"/><line class="i" y1="20.274" x2="20.274" transform="translate(149.614 26.161)"/></g></svg>