<svg xmlns="http://www.w3.org/2000/svg" xmlns:xlink="http://www.w3.org/1999/xlink" width="40" height="40" viewBox="0 0 40 40"><defs><style>.a,.c{fill:#0df;}.b{clip-path:url(#a);}.c{fill-rule:evenodd;}</style><clipPath id="a"><rect class="a" width="40" height="40"/></clipPath></defs><g class="b"><g transform="translate(0 1.394)"><circle class="a" cx="4" cy="4" r="4" transform="translate(8 10.606)"/><circle class="a" cx="4" cy="4" r="4" transform="translate(24 10.606)"/><path class="c" d="M38.54.807C35.57,2.271,28.388,3.3,20,3.3S4.43,2.271,1.46.807A1,1,0,0,0,0,1.689V19.3a20,20,0,0,0,20,20H40V1.689A1,1,0,0,0,38.54.807ZM20,25.309A10.034,10.034,0,0,0,17.994,23.3,10.034,10.034,0,0,0,20,21.3,10.034,10.034,0,0,0,22.006,23.3,10.034,10.034,0,0,0,20,25.309ZM28,23.3a8,8,0,0,1-8-8,8,8,0,1,1-8-8,8,8,0,0,1,8,8,8,8,0,1,1,8,8Z" transform="translate(0 -0.697)"/></g></g></svg>