<svg id="Layer_1" data-name="Layer 1" xmlns="http://www.w3.org/2000/svg" viewBox="0 0 60 60"><title>6</title><path d="M25.79,2.06a16.74,16.74,0,0,0-8.21,5.18A25.94,25.94,0,0,0,12.34,18a13.23,13.23,0,0,0,1.13,8.85,91.71,91.71,0,0,0,5.15,8.61A65.78,65.78,0,0,1,23,43.71c1,2.39,1.55,4.33,2.7,5.85a8.81,8.81,0,0,0,5,3.18A7.81,7.81,0,0,0,37,51.58c1.92-1.38,3.38-4,4.78-7.9A107,107,0,0,0,45.55,29c1.07-5.51,1.86-11.22.85-15.52a15.05,15.05,0,0,0-6.41-9,17.08,17.08,0,0,0-7.34-2.76,15.23,15.23,0,0,0-6.86.31Z" fill="#fff" stroke="#0af" stroke-linecap="round" stroke-linejoin="round" stroke-width="3" fill-rule="evenodd"/><path d="M22.24,25.85a4.75,4.75,0,0,0,5-4.53,4.75,4.75,0,0,0-5-4.52,4.76,4.76,0,0,0-4.95,4.52,4.76,4.76,0,0,0,4.95,4.53Z" fill="#cef" stroke="#0af" stroke-linecap="round" stroke-linejoin="round" stroke-width="3" fill-rule="evenodd"/><path d="M36.84,24.56A4.79,4.79,0,0,0,41.79,20a5,5,0,0,0-9.9,0,4.77,4.77,0,0,0,5,4.56Z" fill="#cef" stroke="#0af" stroke-linecap="round" stroke-linejoin="round" stroke-width="3" fill-rule="evenodd"/><path d="M31.58,46.44c2,0,3.63-2.56,3.63-5.68s-1.63-5.68-3.63-5.68S28,37.63,28,40.76s1.63,5.68,3.6,5.68Z" fill="#cef" stroke="#0af" stroke-linecap="round" stroke-linejoin="round" stroke-width="3" fill-rule="evenodd"/><line x1="27.42" y1="28.55" x2="27.42" y2="29.9" fill="none" stroke="#0af" stroke-linecap="round" stroke-linejoin="round" stroke-width="3"/><line x1="32.62" y1="28.38" x2="33.24" y2="29.59" fill="none" stroke="#0af" stroke-linecap="round" stroke-linejoin="round" stroke-width="3"/><path d="M46.85,17.78c1.15-1.85,2.3-3.71,3.57-4.19s2.67.51,3.43,2.65.93,5.42.73,8.68a35.11,35.11,0,0,1-1.74,9.54c-1,3-2.59,5.87-3.24,9a37.54,37.54,0,0,0-.16,10.07" fill="none" stroke="#0af" stroke-linecap="round" stroke-linejoin="round" stroke-width="3"/><path d="M39.54,48.69A14.5,14.5,0,0,0,40,53.3a27.21,27.21,0,0,0,2.42,5.2" fill="none" stroke="#0af" stroke-linecap="round" stroke-linejoin="round" stroke-width="3"/><path d="M12,20.68a7.16,7.16,0,0,0-2.28-2.5,2.41,2.41,0,0,0-2.93.67,7.05,7.05,0,0,0-1.46,5.37,21.51,21.51,0,0,0,3,8.63c1.69,2.93,4,5.57,5.29,8.19a20.7,20.7,0,0,1,1.77,7.76" fill="none" stroke="#0af" stroke-linecap="round" stroke-linejoin="round" stroke-width="3"/></svg>