<svg id="Layer_1" data-name="Layer 1" xmlns="http://www.w3.org/2000/svg" xmlns:xlink="http://www.w3.org/1999/xlink" viewBox="0 0 60 60"><defs><clipPath id="clip-path"><path d="M16.45,11h8.8a9.5,9.5,0,0,1,19,0H53a5.48,5.48,0,0,1,5.47,5.45V53A5.48,5.48,0,0,1,53,58.5H44.25a9.5,9.5,0,0,0-19,0h-8.8A5.48,5.48,0,0,1,11,53V42.66a9.5,9.5,0,0,1,0-19V16.45A5.48,5.48,0,0,1,16.45,11Z" fill="none" clip-rule="evenodd"/></clipPath></defs><title>2</title><path d="M16.45,11h8.8a9.5,9.5,0,0,1,19,0H53a5.48,5.48,0,0,1,5.47,5.45V53A5.48,5.48,0,0,1,53,58.5H44.25a9.5,9.5,0,0,0-19,0h-8.8A5.48,5.48,0,0,1,11,53V42.66a9.5,9.5,0,0,1,0-19V16.45A5.48,5.48,0,0,1,16.45,11Z" fill="#fff" fill-rule="evenodd"/><g clip-path="url(#clip-path)"><path d="M21,53.26H11a5.46,5.46,0,0,0,5.45,5.24h8.8a9.53,9.53,0,0,1,.52-3.19,10.67,10.67,0,0,1,1-2.05A9.41,9.41,0,0,1,34.75,49a8.88,8.88,0,0,1,1.56.12,9.48,9.48,0,0,1,6.35,4.11v0a9.19,9.19,0,0,1,1,2.05,9.54,9.54,0,0,1,.55,3.19H53a5.46,5.46,0,0,0,5.44-5.24h-10A14.63,14.63,0,0,0,46,49a15.65,15.65,0,0,0-3.36-3,14.57,14.57,0,0,0-6.35-2.21c-.52-.05-1-.08-1.56-.08a14.26,14.26,0,0,0-4.75.78,14.7,14.7,0,0,0-6.34,4.23c-.06.09-.12.14-.18.23A14.72,14.72,0,0,0,21,53.26Z" fill="#cef" fill-rule="evenodd"/></g><path d="M16.45,11h8.8a9.5,9.5,0,0,1,19,0H53a5.48,5.48,0,0,1,5.47,5.45V53A5.48,5.48,0,0,1,53,58.5H44.25a9.5,9.5,0,0,0-19,0h-8.8A5.48,5.48,0,0,1,11,53V42.66a9.5,9.5,0,0,1,0-19V16.45A5.48,5.48,0,0,1,16.45,11Z" fill="none" stroke="#00a8ff" stroke-linecap="round" stroke-linejoin="round" stroke-width="3"/><path d="M52,32.11V21.57a4,4,0,0,0-4-4.05H37.73" fill="none" stroke="#cef" stroke-linecap="round" stroke-linejoin="round" stroke-width="3"/></svg>