<svg id="Layer_1" data-name="Layer 1" xmlns="http://www.w3.org/2000/svg" xmlns:xlink="http://www.w3.org/1999/xlink" viewBox="0 0 60 60"><defs><clipPath id="clip-path"><path d="M3.82,26.92l16.94,3.4L36.33,14.75,15.61,10.61a2.77,2.77,0,0,0-2.58.78L2.35,22.06a2.82,2.82,0,0,0-.72,2.88,2.86,2.86,0,0,0,2.19,2ZM33.05,56.16l-3.4-16.95,15.6-15.57,4.14,20.72a2.87,2.87,0,0,1-.8,2.62L37.91,57.65a2.88,2.88,0,0,1-4.86-1.49Z" fill="none" clip-rule="evenodd"/></clipPath></defs><title>5</title><path d="M3.82,26.92l16.94,3.4L36.33,14.75,15.61,10.61a2.77,2.77,0,0,0-2.58.78L2.35,22.06a2.82,2.82,0,0,0-.72,2.88,2.86,2.86,0,0,0,2.19,2ZM33.05,56.16l-3.4-16.95,15.6-15.57,4.14,20.72a2.87,2.87,0,0,1-.8,2.62L37.91,57.65a2.88,2.88,0,0,1-4.86-1.49Z" fill="#fff" fill-rule="evenodd"/><g clip-path="url(#clip-path)"><path d="M10.49,28.25l10.27,2.07L36.33,14.75,18.15,11.1a38.72,38.72,0,0,0-7.66,17.15ZM48.87,41.83a38.66,38.66,0,0,1-17.14,7.65L29.65,39.21l15.6-15.57Z" fill="#cef" fill-rule="evenodd"/></g><path d="M3.82,26.92l16.94,3.4L36.33,14.75,15.61,10.61a2.77,2.77,0,0,0-2.58.78L2.35,22.06a2.82,2.82,0,0,0-.72,2.88,2.86,2.86,0,0,0,2.19,2ZM33.05,56.16l-3.4-16.95,15.6-15.57,4.14,20.72a2.87,2.87,0,0,1-.8,2.62L37.91,57.65a2.88,2.88,0,0,1-4.86-1.49Z" fill="none" stroke="#00a8ff" stroke-linecap="round" stroke-linejoin="round" stroke-width="3"/><path d="M15.36,38.23A33.45,33.45,0,0,1,52.24,1.69a6.77,6.77,0,0,1,6.07,6A33.41,33.41,0,0,1,48.67,35a33.31,33.31,0,0,1-26.93,9.64Z" fill="#fff" stroke="#00a8ff" stroke-linecap="round" stroke-linejoin="round" stroke-width="3" fill-rule="evenodd"/><path d="M33.11,26.87a6.14,6.14,0,1,0,0-8.69,6.13,6.13,0,0,0,0,8.69Z" fill="#fff" stroke="#00a8ff" stroke-linecap="round" stroke-linejoin="round" stroke-width="3" fill-rule="evenodd"/><path d="M14.61,45.83a2.88,2.88,0,0,1,0,4.11C13.49,51.09,7.18,54.77,6,53.62S9.37,47,10.49,45.83a2.93,2.93,0,0,1,4.12,0Z" fill="#fff" stroke="#00a8ff" stroke-linecap="round" stroke-linejoin="round" stroke-width="3" fill-rule="evenodd"/></svg>