<svg id="Layer_1" data-name="Layer 1" xmlns="http://www.w3.org/2000/svg" xmlns:xlink="http://www.w3.org/1999/xlink" viewBox="0 0 60 60"><defs><clipPath id="clip-path"><path d="M17.34,26.87,9.14,53.22a4.17,4.17,0,0,0,.57,3.3A2.43,2.43,0,0,0,11.79,58h3.33c1.14,0,1.88-1,2.5-2.5L30,26.87Z" fill="none" clip-rule="evenodd"/></clipPath></defs><title>1</title><path d="M17.34,26.87,9.14,53.22a4.17,4.17,0,0,0,.57,3.3A2.43,2.43,0,0,0,11.79,58h3.33c1.14,0,1.88-1,2.5-2.5L30,26.87Z" fill="#fff" fill-rule="evenodd"/><g clip-path="url(#clip-path)"><path d="M39.5.49l1.17-4.72H64.2V58H40.67L39.5,53.3c-.71-2.73-3.1-7.76-6.4-7.76H14.43a21.43,21.43,0,0,1-9-2.22C-1.07,40.07-4.23,34-4.23,26.87S-1.07,13.7,5.41,10.42a21.4,21.4,0,0,1,9-2.19H33.1c3.3,0,5.69-5,6.4-7.74Z" fill="#cef" fill-rule="evenodd"/></g><path d="M17.34,26.87,9.14,53.22a4.17,4.17,0,0,0,.57,3.3A2.43,2.43,0,0,0,11.79,58h3.33c1.14,0,1.88-1,2.5-2.5L30,26.87Z" fill="none" stroke="#00a8ff" stroke-linecap="round" stroke-linejoin="round" stroke-width="3"/><path d="M58,26.87V2H45.54S42.43,14.43,33.1,14.43H14.43S2,14.43,2,26.87,14.43,39.33,14.43,39.33H33.1c9.33,0,12.44,12.44,12.44,12.44H58Z" fill="#fff" stroke="#00a8ff" stroke-linecap="round" stroke-linejoin="round" stroke-width="3" fill-rule="evenodd"/><path d="M49.92,8.23C46.85,15,40.9,20.67,33.1,20.67H14.43a10,10,0,0,0-3.44.88c-2.19,1.11-2.76,3-2.76,5.32" fill="none" stroke="#cef" stroke-linecap="round" stroke-linejoin="round" stroke-width="3"/></svg>