<svg id="Layer_1" data-name="Layer 1" xmlns="http://www.w3.org/2000/svg" xmlns:xlink="http://www.w3.org/1999/xlink" viewBox="0 0 60 60"><defs><clipPath id="clip-path"><path d="M41.18,41.18h0a3.12,3.12,0,0,1-4.46,0l-9-9a3.21,3.21,0,0,1,0-4.49h0a3.21,3.21,0,0,1,4.49,0l9,9a3.12,3.12,0,0,1,0,4.46Z" fill="none" clip-rule="evenodd"/></clipPath></defs><title>3</title><path d="M58.5,30A28.5,28.5,0,1,0,30,58.5,28.49,28.49,0,0,0,58.5,30Z" fill="#fff" stroke="#00a8ff" stroke-miterlimit="10" stroke-width="3" fill-rule="evenodd"/><path d="M30,7.84A22.16,22.16,0,1,0,52.16,30,22.18,22.18,0,0,0,30,7.84Z" fill="#fff" stroke="#00a8ff" stroke-miterlimit="10" stroke-width="3" fill-rule="evenodd"/><path d="M41.18,41.18h0a3.12,3.12,0,0,1-4.46,0l-9-9a3.21,3.21,0,0,1,0-4.49h0a3.21,3.21,0,0,1,4.49,0l9,9a3.12,3.12,0,0,1,0,4.46Z" fill="#fff" fill-rule="evenodd"/><g clip-path="url(#clip-path)"><path d="M36.11,31.62a6.3,6.3,0,0,1-4.49,4.49l.23.2,3.28,3.28a11,11,0,0,0,1.18-.73,10.3,10.3,0,0,0,2.55-2.55,11,11,0,0,0,.73-1.18l-3.28-3.28Z" fill="#cef" fill-rule="evenodd"/></g><path d="M41.18,41.18h0a3.12,3.12,0,0,1-4.46,0l-9-9a3.21,3.21,0,0,1,0-4.49h0a3.21,3.21,0,0,1,4.49,0l9,9a3.12,3.12,0,0,1,0,4.46Z" fill="none" stroke="#00a8ff" stroke-miterlimit="10" stroke-width="3"/><path d="M30,36.31A6.33,6.33,0,1,0,23.66,30,6.32,6.32,0,0,0,30,36.31Z" fill="#fff" stroke="#00a8ff" stroke-miterlimit="10" stroke-width="3" fill-rule="evenodd"/><path d="M13.78,29.65a16,16,0,0,1,16-16" fill="none" stroke="#cef" stroke-linecap="round" stroke-linejoin="round" stroke-width="3"/></svg>