<svg xmlns="http://www.w3.org/2000/svg" width="40.001" height="40" viewBox="0 0 40.001 40"><defs><style>.a{fill:#af0;}</style></defs><g transform="translate(-1047 -22)"><g transform="translate(1047 22)"><circle class="a" cx="4.482" cy="4.482" r="4.482" transform="translate(4.115)"/><path class="a" d="M8.6,13.448H2.268A2.227,2.227,0,0,1,.114,10.564,9.02,9.02,0,0,1,8.6,4.482a9.019,9.019,0,0,1,8.482,6.082,2.227,2.227,0,0,1-2.154,2.884Z" transform="translate(0 4.482)"/><g transform="translate(22.806)"><circle class="a" cx="4.482" cy="4.482" r="4.482" transform="translate(4.115)"/><path class="a" d="M20,13.448H13.671a2.227,2.227,0,0,1-2.154-2.884,8.957,8.957,0,0,1,16.966,0,2.227,2.227,0,0,1-2.154,2.884Z" transform="translate(-11.403 4.482)"/></g><g transform="translate(0 22.071)"><circle class="a" cx="4.482" cy="4.482" r="4.482" transform="translate(4.115)"/><path class="a" d="M8.6,24.482H2.268A2.227,2.227,0,0,1,.114,21.6a8.958,8.958,0,0,1,16.966,0,2.227,2.227,0,0,1-2.154,2.884Z" transform="translate(0 -6.553)"/></g><g transform="translate(22.806 22.071)"><circle class="a" cx="4.482" cy="4.482" r="4.482" transform="translate(4.115)"/><path class="a" d="M20,24.482H13.671A2.227,2.227,0,0,1,11.517,21.6a8.958,8.958,0,0,1,16.966,0,2.227,2.227,0,0,1-2.154,2.884Z" transform="translate(-11.403 -6.553)"/></g></g></g></svg>