<svg xmlns="http://www.w3.org/2000/svg" width="105.412" height="140.146" viewBox="0 0 105.412 140.146"><defs><style>.a{fill:rgba(187,255,0,0.47);}.b{fill:#00a8ff;}.c{fill:rgba(0,0,0,0.1);}</style></defs><g transform="translate(-9 0.021)"><path class="a" d="M-10279.972-54.666s-.437-12.26,0-13.352c-5.691-7.005-8.756-26.487-7.881-43.563a9.734,9.734,0,0,1,.251-1.746c.028-1.876.083-3.7.188-5.479.219-3.94.436-7.881.655-11.6.439-7.661,1.095-15.322,1.971-23.2a5.138,5.138,0,0,1,5.91-4.816,5.107,5.107,0,0,1,4.815,5.255c-.2,6.94-.215,13.879-.217,20.819q.133-5.879.437-11.626c.22-4.377.438-8.756.875-13.133.22-4.379.656-8.539,1.095-13.135a6.464,6.464,0,0,1,6.786-5.691,6.318,6.318,0,0,1,5.475,6.786c-.22,4.16-.22,8.537-.22,12.7v5.253c.163-3.328.358-6.589.655-9.849.439-5.035.876-9.634,1.534-14.667a6.773,6.773,0,0,1,7.661-6.13,7.085,7.085,0,0,1,6.347,7.661c-.217,4.6-.437,9.412-.655,14.011-.22,4.816-.22,9.412,0,14.008v-6.347c0-3.94.219-7.881.219-11.821a7.105,7.105,0,0,1,7.442-6.786,6.969,6.969,0,0,1,7.225,7.005v11.6c0,3.94.22,7.661.22,11.6.2,7.209.6,14.612,1.2,21.663.164,1,.581,3.56,1.646,10.079.438,3.282,4.159,7.442,7.883,5.472.142-.071.211-.059.217.025l10.29-5.716c3.94-1.97,7.881-3.94,12.26-5.91a7.363,7.363,0,0,1,9.632,3.5,7.577,7.577,0,0,1-2.409,8.756c-3.282,2.409-6.566,5.255-9.851,8.1s-6.35,5.691-9.632,8.537a186.933,186.933,0,0,0-17.073,17.951,13.037,13.037,0,0,1-8.826,4.808l-.151.446v8.537Z" transform="translate(10299.916 181.876)"/><path class="b" d="M13.6,54.8l57.572,5.035,3.5,15.1H9Z" transform="translate(0 65.185)"/><path class="c" d="M-10263.044-95.387c-.438.219-.438,0-.438-.219a15.207,15.207,0,0,0-1.095-2.845,12.367,12.367,0,0,0-1.751-2.845,25.08,25.08,0,0,0-4.6-5.035,26.367,26.367,0,0,0-5.91-3.5,38.615,38.615,0,0,0-6.788-1.751h-.217a2.171,2.171,0,0,1-1.753-2.409,2.132,2.132,0,0,1,2.189-1.751c1.314.219,2.626.219,4.159.439a25.093,25.093,0,0,1,3.94.875,22.707,22.707,0,0,1,4.664,1.787,31.686,31.686,0,0,1,2.121-2.882,14.73,14.73,0,0,1,3.284-3.065,21.7,21.7,0,0,1,3.721-2.409,23.282,23.282,0,0,1,4.16-1.531,2.012,2.012,0,0,1,2.406,1.531,2.2,2.2,0,0,1-1.095,2.409h-.217a11.756,11.756,0,0,0-2.846,1.531,11.468,11.468,0,0,0-2.409,2.189,20.54,20.54,0,0,0-1.97,2.626,17.988,17.988,0,0,0-1.531,2.848c-.041.109-.086.215-.136.317a40.775,40.775,0,0,1,3.856,3.842,19.829,19.829,0,0,1,2.409,3.5,38.226,38.226,0,0,1,1.97,4.16,3.168,3.168,0,0,1-1.97,4.16,3.332,3.332,0,0,1-1.17.218A3.205,3.205,0,0,1-10263.044-95.387Zm5.91-37.872v-.217a185.966,185.966,0,0,1,0-22.109c.217-7.224.876-14.449,1.531-21.892a1.916,1.916,0,0,1,1.97-1.751c.876.219,1.751,1.095,1.534,1.97q-.33,10.836,0,21.673c.217,7.222.656,14.446,1.531,21.451a3.4,3.4,0,0,1-2.846,3.723,3.1,3.1,0,0,1-.382.023A3.4,3.4,0,0,1-10257.134-133.259Zm-30.867-.875v-.436c0-2.848,0-4.818.22-7.224l.437-7,1.314-13.793a1.918,1.918,0,0,1,1.97-1.751,2.077,2.077,0,0,1,1.753,1.97l.217,13.793.22,6.785a61.99,61.99,0,0,0,.438,6.566v.219a3.4,3.4,0,0,1-2.845,3.721,3.111,3.111,0,0,1-.386.024A3.406,3.406,0,0,1-10288-134.135Zm14.888-3.284v-.217c-.22-7.224,0-14.449.217-21.453.439-7.224,1.095-14.229,1.971-21.234a1.8,1.8,0,0,1,2.189-1.531c.655-.219,1.313.656,1.313,1.751-.438,7-.658,14.01-.438,21.014,0,7,.438,14.01,1.095,21.014a3.072,3.072,0,0,1-2.846,3.5C-10271.362-134.571-10273.113-135.666-10273.113-137.419Z" transform="translate(10310.134 195.891)"/></g></svg>