<svg xmlns="http://www.w3.org/2000/svg" xmlns:xlink="http://www.w3.org/1999/xlink" width="60" height="60" viewBox="0 0 60 60"><defs><style>.a{fill:#00a8ff;}.b{clip-path:url(#a);}</style><clipPath id="a"><rect class="a" width="60" height="60"/></clipPath></defs><g class="b" transform="translate(0 0)"><g transform="translate(0 0.003)"><path class="a" d="M51.418.028a3.011,3.011,0,0,0-.753-.006L30.112,2.3a1.185,1.185,0,0,0-.9,1.779q.846,1.436,1.779,2.823L26.47,11.428c-.03.018-.06.033-.09.054a1.485,1.485,0,0,0-.207.18L7.249,30.652l-.621.618v0L4.153,33.757a4.283,4.283,0,0,0-.417,5.6,58.976,58.976,0,0,0,11.19,11.2,4.283,4.283,0,0,0,5.6-.417L46.981,23.689a1.738,1.738,0,0,0,.312-.438q1.476.995,2.913,1.83a1.187,1.187,0,0,0,1.776-.9L54.2,3.619A3.21,3.21,0,0,0,51.418.028Z" transform="translate(5.773 -0.001)"/><path class="a" d="M13.119,18.705q-.635-.59-1.254-1.2t-1.329-1.392a1.9,1.9,0,0,0-2.688-.189l-.009.009c-1.266,1.134-2.775,2.568-4.6,4.389-.792.858-1.521,1.6-2.175,2.334a3.8,3.8,0,0,0,.084,5.364l.12.111h.066a3.777,3.777,0,0,0,5.235-.216c2.142-2.217,4.6-4.635,6.546-6.426a1.883,1.883,0,0,0,.12-2.661C13.2,18.786,13.161,18.744,13.119,18.705Z" transform="translate(0 30.911)"/></g></g></svg>