<svg xmlns="http://www.w3.org/2000/svg" width="42.788" height="60" viewBox="0 0 42.788 60"><defs><style>.a{fill:#00a8ff;}</style></defs><path class="a" d="M9.107,64C4.077,64,0,70.716,0,79c0,4.609,1.14,9.5,2.277,17.045.891,5.912,3.058,10.812,6.83,10.812s6.3-3.267,6.3-9.239c0-2.034-1.672-5.273-1.746-8.038C13.525,84.594,17,82.6,17,78,17,69.711,14.136,64,9.107,64ZM33.681,81.143c-5.029,0-7.9,5.711-7.9,14,0,4.609,3.479,6.6,3.344,11.585-.074,2.764-1.746,6-1.746,8.038,0,5.972,2.528,9.239,6.3,9.239s5.94-4.9,6.83-10.812c1.137-7.547,2.277-12.436,2.277-17.045C42.788,87.859,38.711,81.143,33.681,81.143Z" transform="translate(0 -64)"/></svg>