<svg width="32" height="32" xmlns="http://www.w3.org/2000/svg">

 <g>
  <title>background</title>
  <rect fill="none" id="canvas_background" height="402" width="582" y="-1" x="-1"/>
 </g>
 <g>
  <title>Layer 1</title>
  <path id="Cat_4_" fill="#000000" d="m18.52,24.493l-2.263,0l-2.265,0c0,0 0.006,-1.344 0,-2.265c-3.099,0.667 -3.964,-1.699 -3.964,-1.699c-0.566,-1.132 -1.132,-1.699 -1.132,-1.699c-1.132,-0.673 0,-0.566 0,-0.566c1.132,0 1.699,1.132 1.699,1.132c0.994,1.687 2.762,1.416 3.397,1.132c0,-0.566 0.248,-1.422 0.566,-1.699c-2.473,-0.279 -4.532,-1.699 -4.532,-4.53s0.568,-3.397 1.135,-3.964c-0.114,-0.279 -0.588,-1.311 0.018,-2.831c0,0 1.113,0 2.245,1.699c0.561,-0.561 2.265,-0.566 2.832,-0.566c0.565,0 2.269,0.005 2.83,0.566c1.132,-1.699 2.248,-1.699 2.248,-1.699c0.605,1.52 0.132,2.552 0.017,2.831c0.566,0.566 1.132,1.132 1.132,3.964s-2.056,4.251 -4.53,4.53c0.319,0.276 0.566,1.251 0.566,1.699l0.001,3.965l0,0z"/>
  <path stroke="null" stroke-width="1.5" id="svg_6" fill="#000000" d="m15.976662,1.787629c7.848765,0 14.23425,6.375669 14.23425,14.212371s-6.385484,14.212371 -14.23425,14.212371s-14.23425,-6.375669 -14.23425,-14.212371s6.385484,-14.212371 14.23425,-14.212371m0,-0.947491c-8.385871,0 -15.183199,6.787828 -15.183199,15.159862s6.797329,15.159862 15.183199,15.159862s15.183199,-6.786881 15.183199,-15.159862s-6.798278,-15.159862 -15.183199,-15.159862l0,0z"/>
 </g>
</svg>