<svg width="32" height="32" xmlns="http://www.w3.org/2000/svg">

 <title/>
 <g>
  <title>background</title>
  <rect fill="none" id="canvas_background" height="402" width="582" y="-1" x="-1"/>
 </g>
 <g>
  <title>Layer 1</title>
  <path fill="#010101" id="svg_1" d="m20.024405,24.372698a0.812406,0.878519 0 0 1 -0.471195,-0.158133l-7.80722,-5.921218a0.812406,0.878519 0 0 1 -0.34121,-0.641319a0.812406,0.878519 0 0 1 0.235598,-0.702815l2.128503,-2.336861l-3.647702,2.468638l1.624812,4.032402l0.714917,-0.773097a0.812406,0.878519 0 0 1 1.153616,1.238712l-1.624812,1.686756a0.812406,0.878519 0 0 1 -1.324221,-0.272341l-2.347853,-5.921218a0.812406,0.878519 0 0 1 0.324962,-1.089364l10.171321,-6.773381a0.812406,0.878519 0 0 1 0.999259,1.37049l-6.353014,6.870019l6.044299,4.585869l3.249623,-14.934823l-17.686075,7.116004l1.957898,0.878519a0.812406,0.878519 0 1 1 -0.609304,1.62526l-3.907672,-1.713112a0.812406,0.878519 0 0 1 0,-1.642831l21.1388,-8.416212a0.812406,0.878519 0 0 1 0.812406,0.166919a0.812406,0.878519 0 0 1 0.251846,0.878519l-3.899548,17.702158a0.812406,0.878519 0 0 1 -0.503692,0.623748a0.869274,0.940015 0 0 1 -0.284342,0.052711z" class="cls-1"/>
  <ellipse stroke="#000" ry="15.23178" rx="15.23178" id="svg_2" cy="15.975166" cx="16.022076" stroke-width="1.5" fill="#fff"/>
  <path fill="#010101" id="svg_3" d="m22.194715,27.110003a0.910144,0.894451 0 0 1 -0.527884,-0.161001l-8.746484,-6.028599a0.910144,0.894451 0 0 1 -0.38226,-0.652949a0.910144,0.894451 0 0 1 0.263942,-0.715561l2.384577,-2.37924l-4.086546,2.513407l1.820288,4.10553l0.800927,-0.787117a0.910144,0.894451 0 0 1 1.292404,1.261176l-1.820288,1.717346a0.910144,0.894451 0 0 1 -1.483535,-0.27728l-2.630316,-6.028599a0.910144,0.894451 0 0 1 0.364058,-1.109119l11.395003,-6.896217a0.910144,0.894451 0 0 1 1.119477,1.395344l-7.117326,6.994607l6.771471,4.669034l3.640576,-15.205666l-19.813834,7.245053l2.193447,0.894451a0.910144,0.894451 0 1 1 -0.682608,1.654734l-4.377793,-1.744179a0.910144,0.894451 0 0 1 0,-1.672623l23.681946,-8.56884a0.910144,0.894451 0 0 1 0.910144,0.169946a0.910144,0.894451 0 0 1 0.282145,0.894451l-4.368691,18.023187a0.910144,0.894451 0 0 1 -0.564289,0.63506a0.973854,0.957063 0 0 1 -0.31855,0.053667z" class="cls-1"/>
 </g>
</svg>