<svg xmlns="http://www.w3.org/2000/svg" width="60" height="46.154" viewBox="0 0 60 46.154"><defs><style>.a{fill:#41a6f9;}</style></defs><path class="a" d="M50.462,7.308V48.846a2.18,2.18,0,0,1-2.308,2.308H45.846a2.18,2.18,0,0,1-2.308-2.308V35H20.462V48.846a2.18,2.18,0,0,1-2.308,2.308H15.846a2.18,2.18,0,0,1-2.308-2.308V7.308A2.18,2.18,0,0,1,15.846,5h2.308a2.18,2.18,0,0,1,2.308,2.308V21.154H43.538V7.308A2.18,2.18,0,0,1,45.846,5h2.308A2.18,2.18,0,0,1,50.462,7.308ZM4.308,14.231v9.231A2.18,2.18,0,0,0,2,25.769v4.615a2.18,2.18,0,0,0,2.308,2.308v9.231a2.18,2.18,0,0,0,2.308,2.308H8.923V11.923H6.615A2.18,2.18,0,0,0,4.308,14.231Zm55.385,9.231V14.231a2.18,2.18,0,0,0-2.308-2.308H55.077V44.231h2.308a2.18,2.18,0,0,0,2.308-2.308V32.692A2.18,2.18,0,0,0,62,30.385V25.769A2.18,2.18,0,0,0,59.692,23.462Z" transform="translate(-2 -5)"/></svg>